<?xml version="1.0" standalone="no"?>
<!DOCTYPE svg PUBLIC "-//W3C//DTD SVG 20010904//EN"
 "http://www.w3.org/TR/2001/REC-SVG-20010904/DTD/svg10.dtd">
<svg version="1.0" xmlns="http://www.w3.org/2000/svg"
 width="728.000000pt" height="500.000000pt" viewBox="0 0 728.000000 500.000000"
 preserveAspectRatio="xMidYMid meet">

<g transform="translate(0.000000,500.000000) scale(0.100000,-0.100000)"
fill="#000000" stroke="none">
<path d="M2388 4989 c-655 -85 -1089 -485 -1217 -1124 -41 -204 -46 -350 -46
-1365 0 -984 4 -1126 40 -1337 108 -631 538 -1048 1183 -1144 129 -19 178 -20
1345 -16 l1212 3 124 28 c163 36 273 76 400 142 330 174 561 474 655 849 67
270 71 350 71 1485 0 1007 -4 1115 -41 1330 -40 232 -139 466 -262 626 -221
287 -523 456 -917 515 -123 18 -191 19 -1305 18 -646 -1 -1205 -5 -1242 -10z
m2397 -448 c289 -38 462 -110 614 -255 194 -186 268 -393 291 -811 13 -234 13
-1707 0 -1940 -15 -279 -40 -414 -105 -560 -91 -208 -283 -379 -507 -453 -125
-41 -235 -59 -448 -72 -225 -13 -1749 -14 -1980 0 -412 24 -616 101 -805 302
-141 149 -211 322 -246 606 -7 54 -13 432 -16 1002 -6 1174 2 1329 78 1573 57
179 177 340 331 443 164 110 340 156 653 174 223 12 2033 4 2140 -9z"/>
<path d="M4900 4139 c-52 -16 -134 -75 -163 -117 -108 -158 -52 -369 121 -454
64 -31 186 -32 252 -2 56 26 122 91 150 148 92 190 -45 418 -258 431 -37 3
-83 0 -102 -6z"/>
<path d="M3520 3790 c-547 -53 -1000 -442 -1135 -973 -185 -732 291 -1462
1039 -1593 118 -21 315 -21 433 0 479 84 872 426 1017 886 42 132 59 244 58
391 -1 288 -86 546 -253 769 -227 304 -554 487 -929 520 -124 11 -120 11 -230
0z m320 -476 c99 -24 255 -104 336 -172 370 -313 403 -856 74 -1215 -171 -187
-449 -290 -698 -259 -186 24 -322 83 -460 200 -205 173 -319 468 -283 727 49
348 261 600 596 709 118 38 301 42 435 10z"/>
</g>
</svg>
